<mxfile host="Electron" modified="2023-10-15T18:06:19.320Z" agent="Mozilla/5.0 (Windows NT 10.0; Win64; x64) AppleWebKit/537.36 (KHTML, like Gecko) draw.io/22.0.2 Chrome/114.0.5735.289 Electron/25.8.4 Safari/537.36" etag="8JWJEM8mF4lRHWapPXE5" version="22.0.2" type="device">
  <diagram name="Page-1" id="PlO4RaCv59UFWPQcNXEG">
    <mxGraphModel dx="1500" dy="1737" grid="1" gridSize="10" guides="1" tooltips="1" connect="1" arrows="1" fold="1" page="1" pageScale="1" pageWidth="1100" pageHeight="850" math="0" shadow="0">
      <root>
        <mxCell id="0" />
        <mxCell id="1" parent="0" />
        <mxCell id="CgskkQyE9UdDNOUFO8Lr-1" value="" style="rounded=0;whiteSpace=wrap;html=1;movable=0;resizable=0;rotatable=0;deletable=0;editable=0;locked=1;connectable=0;" parent="1" vertex="1">
          <mxGeometry x="150" y="-10" width="810" height="880" as="geometry" />
        </mxCell>
        <mxCell id="2Q21xH8P6JqGB8yl8g4T-1" value="&lt;font style=&quot;font-size: 24px;&quot;&gt;&lt;b&gt;User&lt;/b&gt;&lt;/font&gt;" style="shape=umlActor;verticalLabelPosition=bottom;verticalAlign=top;html=1;outlineConnect=0;fillStyle=auto;strokeWidth=5;" parent="1" vertex="1">
          <mxGeometry x="30" y="280" width="80" height="130" as="geometry" />
        </mxCell>
        <mxCell id="2Q21xH8P6JqGB8yl8g4T-2" value="&lt;font style=&quot;font-size: 24px;&quot;&gt;&lt;b&gt;Admin&lt;/b&gt;&lt;/font&gt;" style="shape=umlActor;verticalLabelPosition=bottom;verticalAlign=top;html=1;outlineConnect=0;fillStyle=auto;strokeWidth=5;" parent="1" vertex="1">
          <mxGeometry x="990" y="280" width="80" height="130" as="geometry" />
        </mxCell>
        <mxCell id="2Q21xH8P6JqGB8yl8g4T-5" value="&lt;font style=&quot;font-size: 20px;&quot;&gt;Browse Products&lt;/font&gt;" style="ellipse;whiteSpace=wrap;html=1;fontSize=20;fontStyle=1;fillColor=#76608a;fontColor=#ffffff;strokeColor=#432D57;" parent="1" vertex="1">
          <mxGeometry x="290" y="100" width="100" height="70" as="geometry" />
        </mxCell>
        <mxCell id="2Q21xH8P6JqGB8yl8g4T-6" value="Select &lt;br style=&quot;font-size: 20px;&quot;&gt;Product" style="ellipse;whiteSpace=wrap;html=1;fontSize=20;fontStyle=1;fillColor=#76608a;fontColor=#ffffff;strokeColor=#432D57;" parent="1" vertex="1">
          <mxGeometry x="320" y="190" width="100" height="70" as="geometry" />
        </mxCell>
        <mxCell id="2Q21xH8P6JqGB8yl8g4T-7" value="Add to Cart" style="ellipse;whiteSpace=wrap;html=1;fontSize=20;fontStyle=1;fillColor=#76608a;fontColor=#ffffff;strokeColor=#432D57;" parent="1" vertex="1">
          <mxGeometry x="360" y="290" width="110" height="70" as="geometry" />
        </mxCell>
        <mxCell id="2Q21xH8P6JqGB8yl8g4T-8" value="Checkout" style="ellipse;whiteSpace=wrap;html=1;fontSize=20;fontStyle=1;fillColor=#76608a;fontColor=#ffffff;strokeColor=#432D57;" parent="1" vertex="1">
          <mxGeometry x="350" y="380" width="100" height="70" as="geometry" />
        </mxCell>
        <mxCell id="2Q21xH8P6JqGB8yl8g4T-9" value="Customer Information" style="ellipse;whiteSpace=wrap;html=1;fontSize=20;fontStyle=1;fillColor=#76608a;fontColor=#ffffff;strokeColor=#432D57;" parent="1" vertex="1">
          <mxGeometry x="305" y="465" width="130" height="90" as="geometry" />
        </mxCell>
        <mxCell id="2Q21xH8P6JqGB8yl8g4T-10" value="Payment Transaction" style="ellipse;whiteSpace=wrap;html=1;fontSize=20;fontStyle=1;fillColor=#76608a;fontColor=#ffffff;strokeColor=#432D57;" parent="1" vertex="1">
          <mxGeometry x="270" y="570" width="130" height="90" as="geometry" />
        </mxCell>
        <mxCell id="2Q21xH8P6JqGB8yl8g4T-12" value="" style="endArrow=none;html=1;rounded=0;exitX=0.5;exitY=0;exitDx=0;exitDy=0;exitPerimeter=0;entryX=0;entryY=0.5;entryDx=0;entryDy=0;" parent="1" source="2Q21xH8P6JqGB8yl8g4T-1" target="2Q21xH8P6JqGB8yl8g4T-5" edge="1">
          <mxGeometry width="50" height="50" relative="1" as="geometry">
            <mxPoint x="510" y="360" as="sourcePoint" />
            <mxPoint x="560" y="310" as="targetPoint" />
          </mxGeometry>
        </mxCell>
        <mxCell id="2Q21xH8P6JqGB8yl8g4T-13" value="" style="endArrow=none;html=1;rounded=0;exitX=0.75;exitY=0.1;exitDx=0;exitDy=0;exitPerimeter=0;entryX=0.036;entryY=0.6;entryDx=0;entryDy=0;entryPerimeter=0;" parent="1" source="2Q21xH8P6JqGB8yl8g4T-1" target="2Q21xH8P6JqGB8yl8g4T-6" edge="1">
          <mxGeometry width="50" height="50" relative="1" as="geometry">
            <mxPoint x="80" y="290" as="sourcePoint" />
            <mxPoint x="290" y="145" as="targetPoint" />
          </mxGeometry>
        </mxCell>
        <mxCell id="2Q21xH8P6JqGB8yl8g4T-14" value="" style="endArrow=none;html=1;rounded=0;exitX=1;exitY=0.3333333333333333;exitDx=0;exitDy=0;exitPerimeter=0;" parent="1" source="2Q21xH8P6JqGB8yl8g4T-1" target="2Q21xH8P6JqGB8yl8g4T-8" edge="1">
          <mxGeometry width="50" height="50" relative="1" as="geometry">
            <mxPoint x="100" y="303" as="sourcePoint" />
            <mxPoint x="294" y="242" as="targetPoint" />
          </mxGeometry>
        </mxCell>
        <mxCell id="2Q21xH8P6JqGB8yl8g4T-15" value="" style="endArrow=none;html=1;rounded=0;exitX=1;exitY=0.3333333333333333;exitDx=0;exitDy=0;exitPerimeter=0;entryX=0;entryY=0.5;entryDx=0;entryDy=0;" parent="1" source="2Q21xH8P6JqGB8yl8g4T-1" target="2Q21xH8P6JqGB8yl8g4T-7" edge="1">
          <mxGeometry width="50" height="50" relative="1" as="geometry">
            <mxPoint x="110" y="313" as="sourcePoint" />
            <mxPoint x="304" y="252" as="targetPoint" />
          </mxGeometry>
        </mxCell>
        <mxCell id="2Q21xH8P6JqGB8yl8g4T-16" value="" style="endArrow=none;html=1;rounded=0;exitX=0.52;exitY=0.591;exitDx=0;exitDy=0;exitPerimeter=0;entryX=0;entryY=0.5;entryDx=0;entryDy=0;" parent="1" source="2Q21xH8P6JqGB8yl8g4T-1" target="2Q21xH8P6JqGB8yl8g4T-9" edge="1">
          <mxGeometry width="50" height="50" relative="1" as="geometry">
            <mxPoint x="120" y="333" as="sourcePoint" />
            <mxPoint x="296" y="399" as="targetPoint" />
          </mxGeometry>
        </mxCell>
        <mxCell id="2Q21xH8P6JqGB8yl8g4T-17" value="" style="endArrow=none;html=1;rounded=0;exitX=1;exitY=1;exitDx=0;exitDy=0;exitPerimeter=0;entryX=0;entryY=0.5;entryDx=0;entryDy=0;" parent="1" source="2Q21xH8P6JqGB8yl8g4T-1" target="2Q21xH8P6JqGB8yl8g4T-10" edge="1">
          <mxGeometry width="50" height="50" relative="1" as="geometry">
            <mxPoint x="82" y="367" as="sourcePoint" />
            <mxPoint x="295" y="505" as="targetPoint" />
          </mxGeometry>
        </mxCell>
        <mxCell id="2Q21xH8P6JqGB8yl8g4T-23" value="&lt;font style=&quot;font-size: 20px;&quot;&gt;Login&lt;/font&gt;" style="ellipse;whiteSpace=wrap;html=1;fontSize=20;fontStyle=1;fillColor=#76608a;fontColor=#ffffff;strokeColor=#432D57;" parent="1" vertex="1">
          <mxGeometry x="250" y="10" width="100" height="70" as="geometry" />
        </mxCell>
        <mxCell id="2Q21xH8P6JqGB8yl8g4T-24" value="" style="endArrow=none;html=1;rounded=0;exitX=0.5;exitY=0;exitDx=0;exitDy=0;exitPerimeter=0;entryX=0;entryY=0.5;entryDx=0;entryDy=0;" parent="1" source="2Q21xH8P6JqGB8yl8g4T-1" target="2Q21xH8P6JqGB8yl8g4T-23" edge="1">
          <mxGeometry width="50" height="50" relative="1" as="geometry">
            <mxPoint x="80" y="290" as="sourcePoint" />
            <mxPoint x="290" y="145" as="targetPoint" />
          </mxGeometry>
        </mxCell>
        <mxCell id="2Q21xH8P6JqGB8yl8g4T-26" value="" style="endArrow=open;endSize=12;dashed=1;html=1;rounded=0;entryX=1;entryY=0.5;entryDx=0;entryDy=0;" parent="1" target="2Q21xH8P6JqGB8yl8g4T-7" edge="1">
          <mxGeometry width="160" relative="1" as="geometry">
            <mxPoint x="350" y="45" as="sourcePoint" />
            <mxPoint x="390" y="135" as="targetPoint" />
            <Array as="points">
              <mxPoint x="480" y="45" />
              <mxPoint x="490" y="325" />
            </Array>
          </mxGeometry>
        </mxCell>
        <mxCell id="2Q21xH8P6JqGB8yl8g4T-27" value="&lt;font style=&quot;font-size: 17px;&quot;&gt;&amp;lt;&amp;lt;include&amp;gt;&amp;gt;&lt;/font&gt;" style="text;html=1;strokeColor=none;fillColor=none;align=center;verticalAlign=middle;whiteSpace=wrap;rounded=0;fontSize=17;" parent="1" vertex="1">
          <mxGeometry x="400" y="16" width="60" height="30" as="geometry" />
        </mxCell>
        <mxCell id="2Q21xH8P6JqGB8yl8g4T-33" value="&lt;font style=&quot;font-size: 20px;&quot;&gt;Login&lt;/font&gt;" style="ellipse;whiteSpace=wrap;html=1;fontSize=20;fontStyle=1;fillColor=#76608a;fontColor=#ffffff;strokeColor=#432D57;" parent="1" vertex="1">
          <mxGeometry x="790" y="10" width="100" height="70" as="geometry" />
        </mxCell>
        <mxCell id="2Q21xH8P6JqGB8yl8g4T-34" value="&lt;font style=&quot;font-size: 20px;&quot;&gt;Post Products&lt;/font&gt;" style="ellipse;whiteSpace=wrap;html=1;fontSize=20;fontStyle=1;fillColor=#76608a;fontColor=#ffffff;strokeColor=#432D57;" parent="1" vertex="1">
          <mxGeometry x="720" y="100" width="100" height="70" as="geometry" />
        </mxCell>
        <mxCell id="2Q21xH8P6JqGB8yl8g4T-35" value="View Order Details" style="ellipse;whiteSpace=wrap;html=1;fontSize=20;fontStyle=1;fillColor=#76608a;fontColor=#ffffff;strokeColor=#432D57;" parent="1" vertex="1">
          <mxGeometry x="600" y="280" width="130" height="90" as="geometry" />
        </mxCell>
        <mxCell id="2Q21xH8P6JqGB8yl8g4T-36" value="Check&lt;br style=&quot;font-size: 20px;&quot;&gt;Stock" style="ellipse;whiteSpace=wrap;html=1;fontSize=20;fontStyle=1;fillColor=#76608a;fontColor=#ffffff;strokeColor=#432D57;" parent="1" vertex="1">
          <mxGeometry x="550" y="380" width="100" height="70" as="geometry" />
        </mxCell>
        <mxCell id="2Q21xH8P6JqGB8yl8g4T-37" value="Delete Product" style="ellipse;whiteSpace=wrap;html=1;fontSize=20;fontStyle=1;fillColor=#76608a;fontColor=#ffffff;strokeColor=#432D57;" parent="1" vertex="1">
          <mxGeometry x="640" y="190" width="100" height="70" as="geometry" />
        </mxCell>
        <mxCell id="2Q21xH8P6JqGB8yl8g4T-40" value="Place Order" style="ellipse;whiteSpace=wrap;html=1;fontSize=20;fontStyle=1;fillColor=#76608a;fontColor=#ffffff;strokeColor=#432D57;" parent="1" vertex="1">
          <mxGeometry x="240" y="690" width="100" height="70" as="geometry" />
        </mxCell>
        <mxCell id="2Q21xH8P6JqGB8yl8g4T-41" value="" style="endArrow=none;html=1;rounded=0;exitX=1;exitY=1;exitDx=0;exitDy=0;exitPerimeter=0;entryX=0;entryY=0;entryDx=0;entryDy=0;" parent="1" source="2Q21xH8P6JqGB8yl8g4T-1" target="2Q21xH8P6JqGB8yl8g4T-40" edge="1">
          <mxGeometry width="50" height="50" relative="1" as="geometry">
            <mxPoint x="120" y="420" as="sourcePoint" />
            <mxPoint x="300" y="625" as="targetPoint" />
          </mxGeometry>
        </mxCell>
        <mxCell id="2Q21xH8P6JqGB8yl8g4T-43" value="Generate Order Reports" style="ellipse;whiteSpace=wrap;html=1;fontSize=20;fontStyle=1;fillColor=#76608a;fontColor=#ffffff;strokeColor=#432D57;" parent="1" vertex="1">
          <mxGeometry x="610" y="470" width="110" height="90" as="geometry" />
        </mxCell>
        <mxCell id="2Q21xH8P6JqGB8yl8g4T-44" value="Manage Returns &amp;amp; Refunds" style="ellipse;whiteSpace=wrap;html=1;fontSize=20;fontStyle=1;fillColor=#76608a;fontColor=#ffffff;strokeColor=#432D57;" parent="1" vertex="1">
          <mxGeometry x="680" y="580" width="120" height="90" as="geometry" />
        </mxCell>
        <mxCell id="2Q21xH8P6JqGB8yl8g4T-45" value="Manage Billing and Invoices" style="ellipse;whiteSpace=wrap;html=1;fontSize=20;fontStyle=1;fillColor=#76608a;fontColor=#ffffff;strokeColor=#432D57;" parent="1" vertex="1">
          <mxGeometry x="730" y="680" width="130" height="90" as="geometry" />
        </mxCell>
        <mxCell id="2Q21xH8P6JqGB8yl8g4T-47" value="Manage Shipping" style="ellipse;whiteSpace=wrap;html=1;fontSize=20;fontStyle=1;fillColor=#76608a;fontColor=#ffffff;strokeColor=#432D57;" parent="1" vertex="1">
          <mxGeometry x="830" y="770" width="110" height="80" as="geometry" />
        </mxCell>
        <mxCell id="2Q21xH8P6JqGB8yl8g4T-53" value="" style="endArrow=none;html=1;rounded=0;exitX=0.25;exitY=0.1;exitDx=0;exitDy=0;exitPerimeter=0;entryX=1;entryY=1;entryDx=0;entryDy=0;" parent="1" source="2Q21xH8P6JqGB8yl8g4T-2" target="2Q21xH8P6JqGB8yl8g4T-33" edge="1">
          <mxGeometry width="50" height="50" relative="1" as="geometry">
            <mxPoint x="530" y="470" as="sourcePoint" />
            <mxPoint x="580" y="420" as="targetPoint" />
          </mxGeometry>
        </mxCell>
        <mxCell id="2Q21xH8P6JqGB8yl8g4T-54" value="" style="endArrow=none;html=1;rounded=0;exitX=0.5;exitY=0.5;exitDx=0;exitDy=0;exitPerimeter=0;entryX=1;entryY=0;entryDx=0;entryDy=0;" parent="1" source="2Q21xH8P6JqGB8yl8g4T-2" target="2Q21xH8P6JqGB8yl8g4T-43" edge="1">
          <mxGeometry width="50" height="50" relative="1" as="geometry">
            <mxPoint x="1020" y="303" as="sourcePoint" />
            <mxPoint x="886" y="79" as="targetPoint" />
          </mxGeometry>
        </mxCell>
        <mxCell id="2Q21xH8P6JqGB8yl8g4T-55" value="" style="endArrow=none;html=1;rounded=0;exitX=0.5;exitY=0.5;exitDx=0;exitDy=0;exitPerimeter=0;" parent="1" source="2Q21xH8P6JqGB8yl8g4T-2" target="2Q21xH8P6JqGB8yl8g4T-36" edge="1">
          <mxGeometry width="50" height="50" relative="1" as="geometry">
            <mxPoint x="1030" y="313" as="sourcePoint" />
            <mxPoint x="896" y="89" as="targetPoint" />
          </mxGeometry>
        </mxCell>
        <mxCell id="2Q21xH8P6JqGB8yl8g4T-56" value="" style="endArrow=none;html=1;rounded=0;exitX=0;exitY=0.3333333333333333;exitDx=0;exitDy=0;exitPerimeter=0;entryX=1;entryY=0.5;entryDx=0;entryDy=0;" parent="1" source="2Q21xH8P6JqGB8yl8g4T-2" target="2Q21xH8P6JqGB8yl8g4T-35" edge="1">
          <mxGeometry width="50" height="50" relative="1" as="geometry">
            <mxPoint x="1040" y="323" as="sourcePoint" />
            <mxPoint x="906" y="99" as="targetPoint" />
          </mxGeometry>
        </mxCell>
        <mxCell id="2Q21xH8P6JqGB8yl8g4T-57" value="" style="endArrow=none;html=1;rounded=0;exitX=0;exitY=0.3333333333333333;exitDx=0;exitDy=0;exitPerimeter=0;" parent="1" source="2Q21xH8P6JqGB8yl8g4T-2" target="2Q21xH8P6JqGB8yl8g4T-37" edge="1">
          <mxGeometry width="50" height="50" relative="1" as="geometry">
            <mxPoint x="1050" y="333" as="sourcePoint" />
            <mxPoint x="916" y="109" as="targetPoint" />
          </mxGeometry>
        </mxCell>
        <mxCell id="2Q21xH8P6JqGB8yl8g4T-58" value="" style="endArrow=none;html=1;rounded=0;exitX=0;exitY=0.3333333333333333;exitDx=0;exitDy=0;exitPerimeter=0;" parent="1" source="2Q21xH8P6JqGB8yl8g4T-2" target="2Q21xH8P6JqGB8yl8g4T-34" edge="1">
          <mxGeometry width="50" height="50" relative="1" as="geometry">
            <mxPoint x="1060" y="343" as="sourcePoint" />
            <mxPoint x="926" y="119" as="targetPoint" />
          </mxGeometry>
        </mxCell>
        <mxCell id="2Q21xH8P6JqGB8yl8g4T-59" value="" style="endArrow=none;html=1;rounded=0;exitX=0;exitY=1;exitDx=0;exitDy=0;exitPerimeter=0;entryX=1;entryY=0;entryDx=0;entryDy=0;" parent="1" source="2Q21xH8P6JqGB8yl8g4T-2" target="2Q21xH8P6JqGB8yl8g4T-44" edge="1">
          <mxGeometry width="50" height="50" relative="1" as="geometry">
            <mxPoint x="1040" y="355" as="sourcePoint" />
            <mxPoint x="736" y="511" as="targetPoint" />
          </mxGeometry>
        </mxCell>
        <mxCell id="2Q21xH8P6JqGB8yl8g4T-60" value="" style="endArrow=none;html=1;rounded=0;exitX=0;exitY=1;exitDx=0;exitDy=0;exitPerimeter=0;entryX=1;entryY=0;entryDx=0;entryDy=0;" parent="1" source="2Q21xH8P6JqGB8yl8g4T-2" target="2Q21xH8P6JqGB8yl8g4T-45" edge="1">
          <mxGeometry width="50" height="50" relative="1" as="geometry">
            <mxPoint x="1000" y="420" as="sourcePoint" />
            <mxPoint x="786" y="601" as="targetPoint" />
          </mxGeometry>
        </mxCell>
        <mxCell id="2Q21xH8P6JqGB8yl8g4T-61" value="" style="endArrow=none;html=1;rounded=0;exitX=0;exitY=1;exitDx=0;exitDy=0;exitPerimeter=0;entryX=0.5;entryY=0;entryDx=0;entryDy=0;" parent="1" source="2Q21xH8P6JqGB8yl8g4T-2" target="2Q21xH8P6JqGB8yl8g4T-47" edge="1">
          <mxGeometry width="50" height="50" relative="1" as="geometry">
            <mxPoint x="1000" y="420" as="sourcePoint" />
            <mxPoint x="846" y="701" as="targetPoint" />
          </mxGeometry>
        </mxCell>
        <mxCell id="Z5sQt6BEnR41CJ4ZddON-2" value="View Product" style="ellipse;whiteSpace=wrap;html=1;fontSize=23;fontStyle=1;fillColor=#76608a;fontColor=#ffffff;strokeColor=#432D57;" parent="1" vertex="1">
          <mxGeometry x="520" y="80" width="120" height="80" as="geometry" />
        </mxCell>
        <mxCell id="Z5sQt6BEnR41CJ4ZddON-3" value="" style="endArrow=none;html=1;rounded=0;exitX=0.75;exitY=0.1;exitDx=0;exitDy=0;exitPerimeter=0;entryX=0;entryY=0.5;entryDx=0;entryDy=0;" parent="1" source="2Q21xH8P6JqGB8yl8g4T-1" target="Z5sQt6BEnR41CJ4ZddON-2" edge="1">
          <mxGeometry width="50" height="50" relative="1" as="geometry">
            <mxPoint x="440" y="400" as="sourcePoint" />
            <mxPoint x="490" y="350" as="targetPoint" />
            <Array as="points">
              <mxPoint x="250" y="220" />
            </Array>
          </mxGeometry>
        </mxCell>
        <mxCell id="Z5sQt6BEnR41CJ4ZddON-4" value="" style="endArrow=none;html=1;rounded=0;exitX=1;exitY=0.5;exitDx=0;exitDy=0;entryX=0;entryY=0.3333333333333333;entryDx=0;entryDy=0;entryPerimeter=0;" parent="1" source="Z5sQt6BEnR41CJ4ZddON-2" target="2Q21xH8P6JqGB8yl8g4T-2" edge="1">
          <mxGeometry width="50" height="50" relative="1" as="geometry">
            <mxPoint x="100" y="303" as="sourcePoint" />
            <mxPoint x="540" y="120" as="targetPoint" />
          </mxGeometry>
        </mxCell>
        <mxCell id="Z5sQt6BEnR41CJ4ZddON-5" value="" style="endArrow=none;html=1;rounded=0;entryX=0.5;entryY=0.5;entryDx=0;entryDy=0;entryPerimeter=0;exitX=1;exitY=0.5;exitDx=0;exitDy=0;" parent="1" source="2Q21xH8P6JqGB8yl8g4T-9" target="2Q21xH8P6JqGB8yl8g4T-2" edge="1">
          <mxGeometry width="50" height="50" relative="1" as="geometry">
            <mxPoint x="440" y="540" as="sourcePoint" />
            <mxPoint x="490" y="490" as="targetPoint" />
          </mxGeometry>
        </mxCell>
      </root>
    </mxGraphModel>
  </diagram>
</mxfile>
